<?xml version="1.0" ?><svg enable-background="new 0 0 512 512" id="Layer_1" version="1.1" viewBox="0 0 512 512" xml:space="preserve" xmlns="http://www.w3.org/2000/svg" xmlns:xlink="http://www.w3.org/1999/xlink"><g><g><linearGradient gradientUnits="userSpaceOnUse" id="SVGID_1_" x1="-0.0000027" x2="512" y1="256" y2="256"><stop offset="0" style="stop-color:#8DC63F"/><stop offset="1" style="stop-color:#76B83F"/></linearGradient><circle cx="256" cy="256" fill="url(#SVGID_1_)" r="256"/><linearGradient gradientUnits="userSpaceOnUse" id="SVGID_2_" x1="42.6666641" x2="469.3333435" y1="256.0005188" y2="256.0005188"><stop offset="0" style="stop-color:#76B83F"/><stop offset="1" style="stop-color:#8DC63F"/></linearGradient><path d="M256,469.3338623c-117.6315002,0-213.3333435-95.7018738-213.3333435-213.3333435    c0-117.6309204,95.7018356-213.333313,213.3333435-213.333313c117.6357117,0,213.3333435,95.7024002,213.3333435,213.333313    C469.3333435,373.6319885,373.6357117,469.3338623,256,469.3338623z" fill="url(#SVGID_2_)"/></g><path d="M264,144.0021362c-66.2731018,0-119.9984283,53.7247925-119.9984283,119.9978638   c0,66.2720032,53.7253265,119.9984131,119.9984283,119.9984131c66.2724915,0,119.9978333-53.7264099,119.9978333-119.9984131   C383.9978333,197.7269287,330.2724915,144.0021362,264,144.0021362z M214.7621002,320.5823975v-113.165863L331.2373352,264   L214.7621002,320.5823975z" opacity="0.3"/><path d="M256,136.0021362c-66.2731018,0-119.9984283,53.7247925-119.9984283,119.9978638   c0,66.2720032,53.7253265,119.9984131,119.9984283,119.9984131c66.2724915,0,119.9978333-53.7264099,119.9978333-119.9984131   C375.9978333,189.7269287,322.2724915,136.0021362,256,136.0021362z M206.7621002,312.5823975v-113.165863L323.2373352,256   L206.7621002,312.5823975z" fill="#FFFFFF"/></g></svg>